<?xml version="1.0" encoding="UTF-8"?>
<svg id="a" data-name="Layer 1" xmlns="http://www.w3.org/2000/svg" viewBox="0 0 94.4 213.99">
  <path d="m0,95.38c2.51-.82,4.38-1.44,6.25-2.03,5.56-1.74,11.18-2.43,16.96-1.19,5.22,1.12,7.86,3.4,8.05,8.77.18,5.29-.05,10.76-1.21,15.9-2.32,10.31-5.36,20.46-8.17,30.66-3.17,11.52-6.69,22.92-7.59,34.97-.92,12.3,5.17,23.09,16.4,27.96,8.67,3.76,17.9,4.47,26.78,2.5,10.14-2.24,19.89-6.23,29.79-9.52.63-.21,1.41-.84,1.56-1.43.95-3.55,1.75-7.14,2.69-11.13-1.16.34-1.73.49-2.3.68-6.78,2.34-13.6,4.06-20.88,2.48-5.47-1.19-8.22-3.18-8.58-8.77-.34-5.38.1-10.99,1.28-16.25,2.35-10.43,5.43-20.7,8.24-31.03,3.23-11.88,7.26-23.55,7.37-36.11.08-9.94-3.16-18.03-11.51-23.74-7.12-4.87-15.24-5.86-23.57-5.66-13.25.32-25.16,5.67-37.26,10.26-.83.32-1.59,1.53-1.87,2.48-.89,3.09-1.54,6.26-2.46,10.19Zm67.53-45.68c14.79.14,26.69-10.63,26.87-24.33C94.58,11.44,82.8.08,68.06,0c-14.71-.08-26.91,11.14-26.99,24.84-.08,13.6,11.75,24.72,26.46,24.86Z" fill="#eb008b" stroke-width="0"/>
</svg>